<svg xmlns="http://www.w3.org/2000/svg" version="1.1" xmlns:xlink="http://www.w3.org/1999/xlink" width="512" height="512" x="0" y="0" viewBox="0 0 24 24" style="enable-background:new 0 0 512 512" xml:space="preserve"><g><path d="m23.936 16.477-1.993-9.426C21.568 5.283 19.998 4 18.209 4H5.791C4.002 4 2.432 5.283 2.058 7.051L.065 16.477a2.92 2.92 0 0 0 .589 2.455A2.863 2.863 0 0 0 2.887 20a2.86 2.86 0 0 0 2.669-1.807l1.262-2.85a.272.272 0 0 1 .251-.177h9.86c.11 0 .209.069.264.205l1.238 2.793a2.875 2.875 0 0 0 4.915.768 2.921 2.921 0 0 0 .59-2.455zM9.5 10.5h-1v1a1 1 0 0 1-2 0v-1h-1a1 1 0 0 1 0-2h1v-1a1 1 0 0 1 2 0v1h1a1 1 0 0 1 0 2zm7 1.5c-1.378 0-2.5-1.122-2.5-2.5S15.122 7 16.5 7 19 8.122 19 9.5 17.878 12 16.5 12z" fill="#FFFFFF" opacity="1" data-original="#000000"></path></g></svg>