<svg width="873" height="241" viewBox="0 0 873 241" fill="none" xmlns="http://www.w3.org/2000/svg">
<path d="M333.296 112V19.84H351.728V56.576H408.944V19.84H427.376V112H408.944V75.264H351.728V112H333.296ZM444.859 112V38.272C444.859 34.8587 445.67 31.7867 447.291 29.056C448.998 26.24 451.217 24.0213 453.947 22.4C456.763 20.6933 459.878 19.84 463.291 19.84H518.459C521.873 19.84 524.945 20.6933 527.675 22.4C530.491 24.0213 532.753 26.24 534.459 29.056C536.166 31.7867 537.019 34.8587 537.019 38.272V112H518.331V81.664H463.291V112H444.859ZM463.291 63.232H518.331V39.168C518.331 38.912 518.246 38.7413 518.075 38.656C517.99 38.4853 517.819 38.4 517.563 38.4H464.059C463.803 38.4 463.59 38.4853 463.419 38.656C463.334 38.7413 463.291 38.912 463.291 39.168V63.232ZM554.163 112V19.968H627.763C631.177 19.968 634.249 20.8213 636.979 22.528C639.795 24.1493 642.057 26.368 643.763 29.184C645.47 32 646.323 35.072 646.323 38.4V62.72C646.323 66.048 645.47 69.12 643.763 71.936C642.057 74.6667 639.795 76.8853 636.979 78.592C634.249 80.2133 631.177 81.024 627.763 81.024L572.595 81.152V112H554.163ZM573.363 62.464H626.867C627.123 62.464 627.294 62.4213 627.379 62.336C627.55 62.1653 627.635 61.9947 627.635 61.824V39.168C627.635 38.912 627.55 38.7413 627.379 38.656C627.294 38.4853 627.123 38.4 626.867 38.4H573.363C573.107 38.4 572.894 38.4853 572.723 38.656C572.638 38.7413 572.595 38.912 572.595 39.168V61.824C572.595 61.9947 572.638 62.1653 572.723 62.336C572.894 62.4213 573.107 62.464 573.363 62.464ZM657.973 112V19.968H731.573C734.987 19.968 738.059 20.8213 740.789 22.528C743.605 24.1493 745.867 26.368 747.573 29.184C749.28 32 750.133 35.072 750.133 38.4V62.72C750.133 66.048 749.28 69.12 747.573 71.936C745.867 74.6667 743.605 76.8853 740.789 78.592C738.059 80.2133 734.987 81.024 731.573 81.024L676.405 81.152V112H657.973ZM677.173 62.464H730.677C730.933 62.464 731.104 62.4213 731.189 62.336C731.36 62.1653 731.445 61.9947 731.445 61.824V39.168C731.445 38.912 731.36 38.7413 731.189 38.656C731.104 38.4853 730.933 38.4 730.677 38.4H677.173C676.917 38.4 676.704 38.4853 676.533 38.656C676.448 38.7413 676.405 38.912 676.405 39.168V61.824C676.405 61.9947 676.448 62.1653 676.533 62.336C676.704 62.4213 676.917 62.464 677.173 62.464ZM796.855 112V77.568L754.231 19.84H776.119L806.071 57.472L835.895 19.84H858.039L815.415 77.696V112H796.855ZM372.165 237C368.112 237 364.413 236.037 361.069 234.112C357.827 232.085 355.192 229.451 353.165 226.208C351.24 222.864 350.277 219.165 350.277 215.112V149.448C350.277 145.395 351.24 141.747 353.165 138.504C355.192 135.16 357.827 132.525 361.069 130.6C364.413 128.573 368.112 127.56 372.165 127.56H437.677C441.731 127.56 445.379 128.573 448.621 130.6C451.965 132.525 454.651 135.16 456.677 138.504C458.704 141.747 459.717 145.395 459.717 149.448V158.872H437.525V150.512C437.525 150.208 437.424 150.005 437.221 149.904C437.12 149.701 436.917 149.6 436.613 149.6H373.077C372.773 149.6 372.52 149.701 372.317 149.904C372.216 150.005 372.165 150.208 372.165 150.512V214.048C372.165 214.352 372.216 214.605 372.317 214.808C372.52 214.909 372.773 214.96 373.077 214.96H436.613C436.917 214.96 437.12 214.909 437.221 214.808C437.424 214.605 437.525 214.352 437.525 214.048V196.112H413.357V174.072H459.717V215.112C459.717 219.165 458.704 222.864 456.677 226.208C454.651 229.451 451.965 232.085 448.621 234.112C445.379 236.037 441.731 237 437.677 237H372.165ZM479.793 237V149.448C479.793 145.395 480.756 141.747 482.681 138.504C484.708 135.16 487.343 132.525 490.585 130.6C493.929 128.573 497.628 127.56 501.681 127.56H567.193C571.247 127.56 574.895 128.573 578.137 130.6C581.481 132.525 584.167 135.16 586.193 138.504C588.22 141.747 589.233 145.395 589.233 149.448V237H567.041V200.976H501.681V237H479.793ZM501.681 179.088H567.041V150.512C567.041 150.208 566.94 150.005 566.737 149.904C566.636 149.701 566.433 149.6 566.129 149.6H502.593C502.289 149.6 502.036 149.701 501.833 149.904C501.732 150.005 501.681 150.208 501.681 150.512V179.088ZM609.592 237V127.56H632.848L671.152 173.312L709.304 127.56H732.712V237H710.672V160.24L671.152 207.512L631.48 160.392V237H609.592ZM753.951 237V127.56H854.879V149.6H776.143V171.184H839.527V193.376H776.143V214.96H854.879V237H753.951Z" fill="white"/>
<path d="M251.513 19C276.224 19 297.909 36.7213 303.089 61.1416L330.617 191.338C331.881 197.24 331.806 203.35 330.396 209.219C328.986 215.088 326.276 220.565 322.468 225.247C318.091 230.657 312.368 234.822 305.874 237.323C299.38 239.825 292.343 240.577 285.468 239.502C278.592 238.428 272.119 235.565 266.698 231.202C261.277 226.838 257.098 221.127 254.579 214.639L237.48 176.061C236.72 174.183 235.352 173.23 233.833 173.23H97.6424C96.8856 173.241 96.1495 173.48 95.5309 173.916C94.9124 174.352 94.4397 174.965 94.1753 175.674L76.7436 215.04C73.8197 222.424 68.7386 228.756 62.1623 233.208C55.586 237.66 47.8199 240.027 39.8782 240C33.9612 240.005 28.1186 238.682 22.7807 236.129C17.4426 233.576 12.7447 229.857 9.0348 225.247C5.22827 220.564 2.52112 215.087 1.11311 209.218C-0.294921 203.349 -0.368174 197.239 0.899279 191.338L28.4278 61.1416C33.5937 36.7213 55.2794 19 79.9899 19H251.513ZM103.595 53.5312C99.9317 53.5313 96.4185 54.9869 93.8282 57.5771C91.2381 60.1674 89.7833 63.6805 89.7833 67.3437V81.1562H75.9709C72.3076 81.1562 68.7936 82.6117 66.2033 85.2021C63.6131 87.7924 62.1584 91.3055 62.1584 94.9687C62.1584 98.6318 63.6131 102.145 66.2033 104.735C68.7936 107.326 72.3076 108.781 75.9709 108.781H89.7833V122.594C89.7834 126.257 91.238 129.77 93.8282 132.36C96.4185 134.95 99.9317 136.406 103.595 136.406C107.258 136.406 110.772 134.951 113.362 132.36C115.953 129.77 117.407 126.257 117.407 122.594V108.781H131.22C134.883 108.781 138.397 107.326 140.987 104.735C143.578 102.145 145.032 98.6318 145.032 94.9687C145.032 91.3055 143.578 87.7924 140.987 85.2021C138.397 82.6117 134.883 81.1562 131.22 81.1562H117.407V67.3437C117.407 63.6805 115.953 60.1674 113.362 57.5771C110.772 54.9868 107.258 53.5312 103.595 53.5312ZM227.907 60.4375C208.874 60.4377 193.376 75.9352 193.376 94.9687C193.376 114.002 208.874 129.5 227.907 129.5C246.941 129.5 262.438 114.002 262.438 94.9687C262.438 75.9351 246.941 60.4375 227.907 60.4375Z" fill="white"/>
</svg>
